<?xml version="1.0" encoding="UTF-8"?>
<svg id="Layer_4" data-name="Layer 4" xmlns="http://www.w3.org/2000/svg" viewBox="0 0 350 180">
  <defs>
    <style>
      .cls-1 {
        stroke: #f63;
      }

      .cls-1, .cls-2 {
        fill: #f63;
      }

      .cls-1, .cls-3 {
        stroke-miterlimit: 10;
      }

      .cls-2, .cls-4, .cls-5, .cls-6 {
        stroke-width: 0px;
      }

      .cls-4, .cls-3 {
        fill: #999;
      }

      .cls-5 {
        fill: #000;
      }

      .cls-3 {
        stroke: #999;
      }

      .cls-6 {
        fill: #fff;
      }
    </style>
  </defs>
  <rect class="cls-5" width="350" height="180" rx="7" ry="7"/>
  <path class="cls-3" d="M68.66,56.23h12.35l-26.87,60.81h-13.59L13.59,56.23h12.56l21.2,50.57,21.31-50.57Z"/>
  <g>
    <path class="cls-1" d="M64.96,73.25h8.45v43.79h-8.45v-43.79Z"/>
    <path class="cls-1" d="M81.85,73.25h35.94v5.86h-13.71v37.93h-8.45v-37.93h-13.79v-5.86Z"/>
  </g>
  <g>
    <path class="cls-4" d="M151.83,81.25l-8.15-21.23h3.48l3.89,10.46c1.07,2.87,2,5.45,2.67,7.94h.07c.7-2.46,1.74-5.13,2.85-7.91l4.23-10.49h3.45l-8.93,21.23h-3.56Z"/>
    <path class="cls-6" d="M169.95,61.72c.04.94-.78,1.7-2.08,1.7-1.15,0-1.96-.76-1.96-1.7s.85-1.73,2.04-1.73,2,.76,2,1.73ZM166.32,81.25v-15.24h3.26v15.24h-3.26Z"/>
    <path class="cls-6" d="M174.99,70.76c0-1.8-.04-3.34-.15-4.76h2.85l.11,2.99h.15c.82-2.05,2.78-3.34,4.97-3.34.37,0,.63.03.93.09v2.61c-.33-.06-.67-.09-1.11-.09-2.3,0-3.93,1.48-4.37,3.56-.07.38-.15.82-.15,1.29v8.12h-3.22v-10.49Z"/>
    <path class="cls-6" d="M191.93,61.62v4.38h4.67v2.11h-4.67v8.22c0,1.89.63,2.96,2.45,2.96.85,0,1.48-.09,1.89-.19l.15,2.08c-.63.22-1.63.38-2.89.38-1.52,0-2.74-.41-3.52-1.17-.93-.82-1.26-2.17-1.26-3.97v-8.31h-2.78v-2.11h2.78v-3.65l3.19-.72Z"/>
    <path class="cls-6" d="M215.28,77.09c0,1.58.04,2.96.15,4.16h-2.89l-.19-2.49h-.07c-.85,1.23-2.74,2.83-5.93,2.83-2.82,0-6.19-1.32-6.19-6.68v-8.91h3.26v8.44c0,2.9,1.04,4.85,4,4.85,2.19,0,3.71-1.29,4.3-2.52.19-.41.3-.91.3-1.42v-9.35h3.26v11.09Z"/>
    <path class="cls-6" d="M230.62,81.25l-.26-1.92h-.11c-1,1.2-2.93,2.27-5.49,2.27-3.63,0-5.49-2.17-5.49-4.38,0-3.68,3.85-5.7,10.79-5.67v-.32c0-1.26-.41-3.53-4.08-3.53-1.67,0-3.41.44-4.67,1.13l-.74-1.83c1.48-.82,3.63-1.35,5.89-1.35,5.49,0,6.82,3.18,6.82,6.24v5.7c0,1.32.07,2.61.3,3.65h-2.96ZM230.14,73.47c-3.56-.06-7.6.47-7.6,3.43,0,1.79,1.41,2.64,3.08,2.64,2.33,0,3.82-1.26,4.34-2.55.11-.28.19-.6.19-.88v-2.65Z"/>
    <path class="cls-6" d="M238.55,58.88h3.26v22.36h-3.26v-22.36Z"/>
    <path class="cls-6" d="M250.93,61.72c.04.94-.78,1.7-2.08,1.7-1.15,0-1.96-.76-1.96-1.7s.85-1.73,2.04-1.73,2,.76,2,1.73ZM247.29,81.25v-15.24h3.26v15.24h-3.26Z"/>
    <path class="cls-6" d="M253.93,79.64l8.12-8.98c.78-.82,1.52-1.54,2.33-2.36v-.06h-9.71v-2.24h13.68l-.04,1.73-8.01,8.85c-.74.85-1.48,1.61-2.3,2.39v.06h10.49v2.21h-14.57v-1.61Z"/>
    <path class="cls-6" d="M273.38,74.13c.07,3.75,2.89,5.29,6.15,5.29,2.33,0,3.74-.35,4.97-.79l.56,1.98c-1.15.44-3.11.94-5.97.94-5.52,0-8.82-3.09-8.82-7.68s3.19-8.22,8.41-8.22c5.86,0,7.41,4.38,7.41,7.18,0,.57-.07,1.01-.11,1.29h-12.6ZM282.95,72.14c.04-1.76-.85-4.5-4.52-4.5-3.3,0-4.74,2.58-5,4.5h9.53Z"/>
    <path class="cls-6" d="M305.63,58.88v18.42c0,1.35.04,2.9.15,3.94h-2.93l-.15-2.65h-.07c-1,1.7-3.19,2.99-6.12,2.99-4.34,0-7.67-3.12-7.67-7.75-.04-5.07,3.67-8.19,8.04-8.19,2.74,0,4.6,1.1,5.41,2.33h.07v-9.1h3.26ZM302.36,72.21c0-.35-.04-.82-.15-1.17-.48-1.76-2.26-3.21-4.71-3.21-3.37,0-5.37,2.52-5.37,5.89,0,3.09,1.78,5.64,5.3,5.64,2.19,0,4.19-1.23,4.78-3.31.11-.38.15-.76.15-1.2v-2.65Z"/>
    <path class="cls-2" d="M314.37,60.02v21.23h-3.22v-21.23h3.22Z"/>
    <path class="cls-2" d="M324.75,62.35h-7.6v-2.33h18.5v2.33h-7.64v18.9h-3.26v-18.9Z"/>
  </g>
  <g>
    <path class="cls-2" d="M146.5,97.7h3.22v18.93h10.67v2.3h-13.9v-21.23Z"/>
    <path class="cls-2" d="M165.17,111.81c.07,3.75,2.89,5.29,6.15,5.29,2.33,0,3.74-.35,4.97-.79l.56,1.98c-1.15.44-3.11.94-5.97.94-5.52,0-8.82-3.09-8.82-7.68s3.19-8.22,8.41-8.22c5.86,0,7.41,4.38,7.41,7.18,0,.57-.07,1.01-.11,1.29h-12.6ZM174.74,109.82c.04-1.76-.85-4.5-4.52-4.5-3.3,0-4.74,2.58-5,4.5h9.53Z"/>
    <path class="cls-2" d="M191.86,118.92l-.26-1.92h-.11c-1,1.2-2.93,2.27-5.49,2.27-3.63,0-5.48-2.17-5.48-4.38,0-3.68,3.85-5.7,10.79-5.67v-.32c0-1.26-.41-3.53-4.08-3.53-1.67,0-3.41.44-4.67,1.13l-.74-1.83c1.48-.82,3.63-1.35,5.89-1.35,5.49,0,6.82,3.18,6.82,6.24v5.7c0,1.32.07,2.61.3,3.65h-2.96ZM191.37,111.15c-3.56-.06-7.6.47-7.6,3.43,0,1.79,1.41,2.64,3.08,2.64,2.33,0,3.82-1.26,4.34-2.55.11-.28.19-.6.19-.88v-2.65Z"/>
    <path class="cls-2" d="M199.79,108.44c0-1.8-.04-3.34-.15-4.76h2.85l.11,2.99h.15c.82-2.05,2.78-3.34,4.97-3.34.37,0,.63.03.93.09v2.61c-.33-.06-.67-.09-1.11-.09-2.3,0-3.93,1.48-4.37,3.56-.07.38-.15.82-.15,1.29v8.12h-3.22v-10.49Z"/>
    <path class="cls-2" d="M212.05,107.81c0-1.58-.04-2.87-.15-4.13h2.89l.19,2.52h.07c.89-1.45,2.96-2.87,5.93-2.87,2.48,0,6.34,1.26,6.34,6.49v9.1h-3.26v-8.79c0-2.46-1.07-4.5-4.15-4.5-2.15,0-3.82,1.29-4.37,2.83-.15.35-.22.82-.22,1.29v9.17h-3.26v-11.12Z"/>
    <path class="cls-2" d="M236.25,99.4c.04.95-.78,1.7-2.08,1.7-1.15,0-1.96-.76-1.96-1.7s.85-1.73,2.04-1.73,2,.76,2,1.73ZM232.62,118.92v-15.24h3.26v15.24h-3.26Z"/>
    <path class="cls-2" d="M241.29,107.81c0-1.58-.04-2.87-.15-4.13h2.89l.19,2.52h.07c.89-1.45,2.96-2.87,5.93-2.87,2.48,0,6.34,1.26,6.34,6.49v9.1h-3.26v-8.79c0-2.46-1.07-4.5-4.15-4.5-2.15,0-3.82,1.29-4.37,2.83-.15.35-.22.82-.22,1.29v9.17h-3.26v-11.12Z"/>
    <path class="cls-2" d="M277.31,103.68c-.07,1.1-.15,2.33-.15,4.19v8.85c0,3.5-.82,5.64-2.56,6.96-1.74,1.39-4.26,1.83-6.52,1.83s-4.52-.44-5.97-1.26l.82-2.11c1.19.63,3.04,1.2,5.26,1.2,3.33,0,5.78-1.48,5.78-5.32v-1.7h-.07c-1,1.42-2.93,2.55-5.71,2.55-4.45,0-7.64-3.21-7.64-7.43,0-5.16,3.97-8.09,8.08-8.09,3.11,0,4.82,1.39,5.6,2.65h.07l.15-2.3h2.85ZM273.94,109.7c0-.47-.04-.88-.18-1.26-.59-1.61-2.19-2.93-4.56-2.93-3.11,0-5.34,2.24-5.34,5.76,0,2.99,1.78,5.48,5.3,5.48,2,0,3.82-1.07,4.52-2.83.18-.47.26-1.01.26-1.48v-2.74Z"/>
  </g>
</svg>